<svg width="16" height="16" viewBox="0 0 16 16" fill="none" xmlns="http://www.w3.org/2000/svg">
<path d="M8 5.99988H10.9989V7.99988H8V10.9999H6V7.99988H2.99894V5.99988H6V2.99988H8V5.99988Z" fill="#D1D9E5"/>
<path fill-rule="evenodd" clip-rule="evenodd" d="M14 6.99988C14 10.8659 10.866 13.9999 7 13.9999C3.13401 13.9999 0 10.8659 0 6.99988C0 3.13388 3.13401 -0.00012207 7 -0.00012207C10.866 -0.00012207 14 3.13388 14 6.99988ZM11.9989 6.99988C11.9989 9.7613 9.76037 11.9999 6.99894 11.9999C4.23752 11.9999 1.99894 9.7613 1.99894 6.99988C1.99894 4.23845 4.23752 1.99988 6.99894 1.99988C9.76037 1.99988 11.9989 4.23845 11.9989 6.99988Z" fill="#D1D9E5"/>
<path d="M13.8787 11.7575L11.7574 13.8788L15.2929 16.0001L16 15.293L13.8787 11.7575Z" fill="#D1D9E5"/>
</svg>
